<?xml version="1.0" encoding="UTF-8"?>
<svg xmlns="http://www.w3.org/2000/svg" xmlns:xlink="http://www.w3.org/1999/xlink" width="753.9pt" height="137.9pt" viewBox="0 0 753.9 137.9" version="1.1">
<defs>
<clipPath id="clip1">
  <path d="M 0 0 L 753.898438 0 L 753.898438 137.898438 L 0 137.898438 Z M 0 0 "/>
</clipPath>
<clipPath id="clip2">
  <path d="M 607 71 L 753.898438 71 L 753.898438 87 L 607 87 Z M 607 71 "/>
</clipPath>
<clipPath id="clip3">
  <path d="M 602 66 L 753.898438 66 L 753.898438 92 L 602 92 Z M 602 66 "/>
</clipPath>
</defs>
<g id="surface1">
<g clip-path="url(#clip1)" clip-rule="nonzero">
<path style=" stroke:none;fill-rule:evenodd;fill:rgb(80.076599%,80.076599%,80.076599%);fill-opacity:1;" d="M 336.65625 121.6875 C 327.105469 121.519531 319.144531 121.308594 309.242188 121.058594 L 309.242188 121.054688 C 307.714844 122.652344 306.105469 124.15625 304.40625 125.582031 C 295.28125 133.777344 281.734375 137.878906 267.488281 137.878906 C 253.242188 137.878906 243.152344 133.777344 237.222656 125.582031 C 235.546875 123.515625 234.132813 121.261719 232.960938 118.835938 L 232.871094 118.640625 C 220.019531 118.132813 207.816406 117.597656 196.699219 117.0625 L 189.660156 131.03125 L 159.945313 131.03125 L 159.664063 115.015625 C 153.765625 114.617188 147.714844 114.171875 142.289063 113.675781 L 134.96875 128.441406 L 106.449219 128.441406 L 105.882813 110.308594 C 71.996094 106.652344 40.386719 101.863281 24.078125 96.957031 C 8.820313 92.355469 0.00390625 86.320313 0.00390625 83.507813 C 0.238281 78.972656 7.902344 73.492188 23.082031 68.644531 C 38.664063 63.667969 67.34375 57.5625 101.234375 53.882813 L 101.3125 53.882813 C 102.175781 53.722656 102.605469 53.089844 102.605469 52.308594 C 102.605469 51.527344 102.605469 36.527344 102.605469 36.527344 L 132.96875 36.527344 L 137.304688 16.246094 L 155.132813 16.246094 L 149.503906 41.570313 C 149.148438 42.863281 150.796875 42.976563 151.140625 42.390625 C 151.5 41.804688 157.355469 33.835938 157.355469 33.835938 C 157.59375 33.359375 158.296875 32.773438 158.648438 32.890625 C 159.003906 33.011719 161.699219 32.890625 162.164063 32.890625 C 162.632813 32.890625 163.453125 32.660156 163.691406 31.953125 C 164.351563 30.261719 165.867188 28.074219 166.980469 26.726563 C 170.027344 23.046875 176.386719 21.785156 182.09375 21.714844 C 188.496094 21.640625 193.972656 22.378906 196.511719 25.585938 C 198.464844 28.058594 198.726563 31.453125 198.636719 34.886719 C 198.574219 37.234375 198.046875 41.339844 198.046875 42.863281 C 198.046875 43.691406 198.515625 44.503906 199.101563 44.503906 C 199.691406 44.503906 203.914063 44.503906 204.617188 44.503906 C 205.316406 44.503906 206.136719 43.796875 206.25 42.976563 C 206.371094 42.15625 214.578125 7.570313 214.578125 7.570313 L 230.53125 7.570313 C 230.53125 7.570313 229.3125 15.421875 229.199219 16.59375 C 229.132813 17.222656 229.390625 18.121094 230.445313 18.121094 C 231.507813 18.121094 237.441406 18.46875 238.734375 18.46875 C 240.023438 18.46875 242.136719 18.941406 243.421875 20.464844 C 244.710938 21.988281 245.183594 23.511719 245.300781 25.15625 C 245.417969 26.796875 244.128906 40.398438 244.128906 41.339844 C 244.128906 42.273438 245.652344 43.335938 246.710938 42.273438 C 247.765625 41.21875 254.332031 34.765625 255.152344 34.179688 C 255.972656 33.597656 256.675781 32.1875 256.90625 31.484375 C 257.144531 30.78125 259.84375 16.945313 259.84375 16.359375 C 259.84375 15.773438 260.425781 14.722656 261.132813 14.722656 C 261.835938 14.722656 286.925781 14.722656 287.980469 14.722656 C 289.039063 14.722656 291.617188 16.011719 292.320313 17.179688 C 293.023438 18.351563 294.664063 21.519531 294.785156 21.988281 C 294.902344 22.453125 295.605469 23.253906 296.425781 23.28125 C 300.410156 23.398438 308.738281 25.15625 313.074219 27.503906 C 317.410156 29.84375 322.925781 35.121094 324.800781 38.289063 C 325.582031 39.417969 326.675781 39.925781 327.378906 39.925781 C 328.085938 39.925781 335.355469 39.925781 336.058594 39.925781 C 336.761719 39.925781 337.699219 39.222656 337.929688 38.050781 C 338.164063 36.882813 338.480469 32.464844 338.851563 29.199219 C 338.933594 28.175781 339.867188 22.78125 340.472656 20.839844 C 341.039063 18.972656 342.386719 14.421875 343.230469 12.445313 C 344.132813 10.328125 345.191406 8.316406 346.609375 6.605469 C 350.621094 1.746094 358.988281 0.0976563 366.503906 0.00390625 C 374.933594 -0.0898438 382.144531 0.878906 385.484375 5.101563 C 388.125 8.441406 387.972656 12.574219 387.558594 17.234375 C 387.558594 17.234375 386.945313 20.585938 386.824219 21.289063 C 386.710938 21.988281 387.414063 22.691406 388.234375 22.691406 C 389.054688 22.691406 395.152344 22.691406 395.972656 22.691406 C 396.792969 22.691406 397.726563 21.703125 397.898438 21.144531 C 398.378906 19.671875 399.359375 18.433594 400.316406 17.273438 C 403.832031 13.019531 411.175781 11.566406 417.765625 11.492188 C 425.152344 11.402344 431.476563 12.253906 434.402344 15.953125 C 437.324219 19.652344 436.34375 24.453125 435.9375 29.878906 C 435.78125 31.980469 435.28125 34.253906 434.527344 36.492188 C 434.527344 36.492188 433.691406 39.578125 435.253906 39.65625 C 436.8125 39.730469 440.296875 39.65625 441 39.65625 C 441.703125 39.65625 442.46875 38.992188 442.539063 37.933594 C 442.582031 36.8125 442.671875 35.636719 442.761719 34.386719 C 443.15625 29.046875 444.472656 22.863281 447.9375 18.675781 C 451.394531 14.488281 458.621094 13.0625 465.105469 12.988281 C 472.375 12.898438 478.59375 13.738281 481.476563 17.378906 C 482.75 18.992188 483.265625 20.816406 483.421875 22.816406 C 483.421875 22.816406 483.875 24.019531 484.886719 24.097656 C 485.910156 24.179688 492.355469 24.097656 492.355469 24.097656 C 492.710938 24.097656 493.527344 23.867188 493.765625 23.398438 C 494 22.925781 495.757813 16.945313 495.875 16.246094 C 495.992188 15.546875 497.28125 14.839844 498.097656 14.839844 C 498.925781 14.839844 521.199219 14.839844 522.722656 14.839844 C 524.25 14.839844 527.746094 16.253906 529.761719 18.121094 C 531.40625 19.644531 532.929688 22.222656 533.042969 22.691406 C 533.164063 23.164063 533.632813 23.867188 534.214844 23.867188 C 534.804688 23.867188 541.566406 23.867188 542.035156 23.867188 C 542.503906 23.867188 543.523438 23.550781 543.988281 23.089844 C 548.128906 17.6875 553.566406 17.121094 560.921875 17.121094 C 567.953125 17.121094 574.09375 17.738281 576.742188 21.363281 C 577.71875 22.691406 578.269531 24.28125 578.617188 25.898438 C 578.929688 27.347656 579.558594 30.191406 579.558594 30.191406 C 579.558594 30.664063 580.023438 30.824219 580.648438 30.824219 C 581.277344 30.824219 588.46875 29.570313 589.25 29.257813 C 590.03125 28.945313 590.65625 28.164063 590.964844 27.230469 C 591.28125 26.289063 591.597656 24.097656 591.597656 23.316406 C 591.597656 22.535156 592.371094 21.441406 593 21.441406 C 593.625 21.441406 617.703125 21.441406 618.953125 21.441406 C 620.207031 21.441406 622.546875 23.503906 623.417969 24.59375 C 624.292969 25.6875 624.726563 27.214844 624.726563 28.089844 C 624.726563 28.960938 624.726563 30.808594 624.726563 30.808594 C 624.726563 30.808594 624.835938 31.570313 625.277344 31.898438 L 625.96875 32.335938 C 627.996094 33.742188 629.839844 35.601563 631.648438 38.03125 C 633.652344 40.730469 634.496094 43.347656 635.054688 47.238281 C 635.214844 48.335938 635.933594 48.890625 636.933594 48.960938 L 637.929688 49.019531 C 673.832031 51.144531 711.707031 57.339844 729.554688 62.617188 C 744.835938 67.136719 753.882813 70.296875 753.882813 78.507813 C 753.910156 81.320313 744.386719 88.195313 729.175781 92.960938 C 709.152344 99.242188 665.855469 105.601563 623.6875 109.867188 L 622.988281 110.773438 C 619.980469 114.804688 615.734375 118.210938 610.207031 121.628906 C 600.316406 127.722656 585.828125 130.777344 571.917969 130.777344 C 557.699219 130.777344 548.828125 127.769531 542.929688 121.753906 C 541.3125 120.109375 540.074219 118.328125 539.175781 116.371094 L 524.820313 116.746094 L 533.25 132.683594 L 494.722656 132.683594 L 487.660156 118.546875 L 470.835938 119.292969 L 467.777344 134.675781 L 435.457031 134.675781 L 437.753906 122.285156 C 437.984375 121.027344 437.445313 120.5625 436.8125 120.5625 C 436.1875 120.5625 431.65625 120.800781 430.25 120.800781 C 428.84375 120.800781 423.839844 121.027344 422.746094 121.109375 C 421.648438 121.183594 421.34375 121.8125 421.367188 122.753906 C 421.464844 126.3125 421.523438 132.78125 421.964844 135.125 L 389.496094 135.125 C 389.070313 132.988281 389.160156 127.019531 388.886719 123.378906 C 388.789063 122.128906 388.039063 122.042969 387.335938 122.042969 C 386.628906 122.042969 378.972656 122.042969 377.5625 122.128906 C 376.160156 122.203125 368.191406 122.203125 367.328125 122.203125 C 366.464844 122.203125 365.917969 122.988281 365.910156 123.394531 L 363.222656 135.523438 L 333.71875 135.523438 Z M 336.65625 121.6875 "/>
</g>
<path style="fill-rule:evenodd;fill:rgb(92.96875%,10.984802%,14.109802%);fill-opacity:1;stroke-width:9.356;stroke-linecap:butt;stroke-linejoin:miter;stroke:rgb(80.076599%,80.076599%,80.076599%);stroke-opacity:1;stroke-miterlimit:4;" d="M 1258.398438 922.59375 C 1254.0625 899.625 1250.664063 855.601563 1254.882813 846.460938 C 1259.140625 837.203125 1271.523438 832.828125 1292.226563 833.101563 C 1312.65625 833.492188 1327.304688 838.84375 1336.210938 849.15625 C 1341.484375 855.210938 1345.273438 857.4375 1348.4375 871.8125 L 1407.773438 1146.734375 L 1489.921875 1148.296875 L 1430.078125 867.320313 C 1424.492188 842.125 1413.710938 821.929688 1397.734375 806.96875 C 1370.625 781.695313 1333.046875 768.53125 1276.992188 767.59375 C 1220.9375 766.65625 1185.507813 776.070313 1170.898438 795.953125 C 1156.25 815.835938 1163.515625 886.1875 1171.328125 921.148438 Z M 1258.398438 922.59375 " transform="matrix(0.1,0,0,-0.1,0,137.9)"/>
<path style="fill-rule:evenodd;fill:rgb(92.96875%,10.984802%,14.109802%);fill-opacity:1;stroke-width:9.356;stroke-linecap:butt;stroke-linejoin:miter;stroke:rgb(80.076599%,80.076599%,80.076599%);stroke-opacity:1;stroke-miterlimit:4;" d="M 5633.046875 955.445313 L 5702.148438 955.640625 C 5693.90625 933.960938 5682.1875 914.3125 5669.882813 899.585938 C 5645.703125 870.71875 5608.828125 864.585938 5559.023438 863.101563 C 5513.75 861.851563 5463.984375 872.085938 5443.789063 897.085938 C 5423.671875 922.164063 5425.78125 951.460938 5429.6875 989.351563 C 5434.375 1034.78125 5447.109375 1069.78125 5471.25 1099.117188 C 5495.46875 1128.335938 5545.9375 1138.296875 5591.171875 1138.84375 C 5642.03125 1139.390625 5685.46875 1133.609375 5705.546875 1108.140625 C 5725.664063 1082.710938 5718.90625 1049.742188 5716.132813 1012.4375 C 5715.546875 1005.015625 5714.375 997.28125 5712.65625 989.351563 L 5517.265625 989.429688 C 5509.492188 967.632813 5510.664063 948.609375 5519.726563 936.382813 C 5529.53125 923.179688 5549.179688 917.515625 5569.375 919.234375 C 5589.492188 920.992188 5603.984375 926.890625 5615.898438 941.96875 C 5619.023438 945.953125 5621.835938 950.445313 5624.492188 955.40625 Z M 5633.046875 955.445313 " transform="matrix(0.1,0,0,-0.1,0,137.9)"/>
<path style="fill-rule:evenodd;fill:rgb(92.96875%,10.984802%,14.109802%);fill-opacity:1;stroke-width:9.356;stroke-linecap:butt;stroke-linejoin:miter;stroke:rgb(80.076599%,80.076599%,80.076599%);stroke-opacity:1;stroke-miterlimit:4;" d="M 2306.640625 1130.953125 C 2322.773438 1131.03125 2355.703125 1130.09375 2367.773438 1124.625 C 2379.960938 1119.078125 2389.179688 1110.640625 2395.585938 1099.3125 C 2400.976563 1089.703125 2399.882813 1076.148438 2399.570313 1065.953125 C 2399.257813 1055.796875 2396.992188 1039.195313 2392.734375 1016.148438 L 2368.28125 864.742188 L 2298.554688 864.703125 L 2324.0625 1021.734375 C 2326.601563 1035.640625 2326.71875 1050.289063 2321.289063 1057.632813 C 2309.21875 1073.804688 2300.546875 1073.335938 2275.898438 1073.335938 C 2257.851563 1073.335938 2243.085938 1067.398438 2231.523438 1055.445313 C 2220.039063 1043.53125 2212.1875 1026.539063 2208.164063 1004.390625 L 2182.226563 864.585938 L 2113.671875 864.585938 L 2185.898438 1252.085938 L 2254.492188 1252.164063 L 2228.046875 1111.460938 C 2243.554688 1121.617188 2279.140625 1130.757813 2306.640625 1130.953125 Z M 2306.640625 1130.953125 " transform="matrix(0.1,0,0,-0.1,0,137.9)"/>
<path style=" stroke:none;fill-rule:evenodd;fill:rgb(13.719177%,12.156677%,12.547302%);fill-opacity:1;" d="M 123.667969 63.261719 C 121.402344 63.179688 117.808594 62.953125 115.460938 60.992188 C 113.121094 59.035156 113.339844 54.507813 113.585938 52.558594 C 113.898438 50.050781 114.917969 42.019531 114.917969 42.019531 L 107.0625 42.019531 L 109.773438 126.34375 L 132.671875 126.34375 L 161.585938 68.1875 L 163.222656 68.1875 L 164.257813 128.53125 L 187.378906 128.53125 L 226.777344 50.601563 L 229.363281 35.921875 C 229.5 35.195313 229.507813 34.441406 229.222656 34.058594 C 228.601563 33.214844 228.144531 33.238281 226.863281 33.238281 C 225.929688 33.238281 225.160156 33.550781 224.5625 34.171875 C 223.964844 34.789063 223.554688 35.675781 223.34375 36.824219 L 220.605469 52.558594 C 220.601563 52.558594 219.894531 53.765625 218.800781 53.765625 C 218.21875 53.765625 209.421875 53.765625 208.246094 53.765625 C 207.078125 53.765625 206.746094 51.964844 206.746094 51.964844 L 184.796875 97.503906 L 182.683594 97.582031 L 182.535156 58.460938 L 182.3125 58.460938 C 180.773438 58.675781 179.085938 58.78125 177.257813 58.839844 C 171.847656 58.988281 166.707031 57.773438 164.296875 54.777344 C 161.886719 51.78125 162.113281 48.285156 162.453125 43.753906 C 162.582031 42.003906 162.828125 40.148438 163.253906 38.332031 L 160.089844 38.265625 L 132.71875 90.589844 L 129.453125 97.265625 L 127.890625 97.582031 L 128.324219 63.339844 C 128.324219 63.339844 125.9375 63.34375 123.667969 63.261719 Z M 123.667969 63.261719 "/>
<path style=" stroke:none;fill-rule:evenodd;fill:rgb(92.96875%,10.984802%,14.109802%);fill-opacity:1;" d="M 185.855469 89.878906 L 185.855469 74.441406 L 193.59375 74.167969 L 185.847656 90.128906 Z M 185.855469 89.878906 "/>
<path style="fill:none;stroke-width:9.356;stroke-linecap:butt;stroke-linejoin:miter;stroke:rgb(80.076599%,80.076599%,80.076599%);stroke-opacity:1;stroke-miterlimit:4;" d="M 1858.554688 480.210938 L 1858.554688 634.585938 L 1935.9375 637.320313 L 1858.476563 477.710938 " transform="matrix(0.1,0,0,-0.1,0,137.9)"/>
<path style="fill-rule:evenodd;fill:rgb(92.96875%,10.984802%,14.109802%);fill-opacity:1;stroke-width:9.356;stroke-linecap:butt;stroke-linejoin:miter;stroke:rgb(80.076599%,80.076599%,80.076599%);stroke-opacity:1;stroke-miterlimit:4;" d="M 2787.382813 1167.359375 C 2803.554688 1167.476563 2836.445313 1166.460938 2848.554688 1160.953125 C 2860.742188 1155.445313 2869.960938 1147.007813 2876.328125 1135.640625 C 2881.679688 1126.03125 2880.664063 1112.476563 2880.390625 1102.28125 C 2880.117188 1092.164063 2877.851563 1075.5625 2873.59375 1052.515625 L 2849.140625 901.109375 L 2779.335938 901.03125 L 2804.765625 1058.101563 C 2807.421875 1071.96875 2807.578125 1086.65625 2802.109375 1093.960938 C 2790.078125 1110.210938 2781.40625 1109.703125 2756.71875 1109.703125 C 2738.632813 1109.703125 2723.867188 1103.6875 2712.304688 1091.8125 C 2700.820313 1079.859375 2693.007813 1062.828125 2688.867188 1040.71875 L 2663.007813 900.953125 L 2594.414063 900.914063 L 2644.492188 1168.453125 L 2713.046875 1168.492188 L 2708.828125 1147.828125 C 2724.296875 1157.945313 2759.84375 1167.125 2787.382813 1167.359375 Z M 2787.382813 1167.359375 " transform="matrix(0.1,0,0,-0.1,0,137.9)"/>
<path style="fill-rule:evenodd;fill:rgb(92.96875%,10.984802%,14.109802%);fill-opacity:1;stroke-width:9.356;stroke-linecap:butt;stroke-linejoin:miter;stroke:rgb(80.076599%,80.076599%,80.076599%);stroke-opacity:1;stroke-miterlimit:4;" d="M 6097.34375 986.34375 C 6098.945313 995.71875 6099.648438 1001.1875 6098.085938 1011.382813 C 6096.5625 1021.539063 6086.71875 1028.335938 6066.835938 1028.0625 C 6048.867188 1027.789063 6035.742188 1023.726563 6026.640625 1016.421875 C 6019.257813 1010.5625 6016.015625 994.429688 6014.453125 984.273438 C 6012.929688 974.117188 5979.6875 812.710938 5979.6875 812.710938 L 5902.539063 812.867188 L 5960.625 1100.484375 L 6040.195313 1100.367188 L 6037.070313 1080.914063 C 6037.070313 1080.914063 6057.578125 1080.40625 6066.523438 1081.460938 C 6076.171875 1082.4375 6109.804688 1092.90625 6131.71875 1093.960938 C 6159.414063 1095.289063 6183.515625 1089.9375 6189.296875 1072.945313 C 6195.195313 1055.875 6186.40625 1000.71875 6182.304688 986.03125 Z M 6097.34375 986.34375 " transform="matrix(0.1,0,0,-0.1,0,137.9)"/>
<path style="fill-rule:evenodd;fill:rgb(92.96875%,10.984802%,14.109802%);fill-opacity:1;stroke-width:9.356;stroke-linecap:butt;stroke-linejoin:miter;stroke:rgb(80.076599%,80.076599%,80.076599%);stroke-opacity:1;stroke-miterlimit:4;" d="M 1055.3125 614.820313 C 578.984375 598.335938 194.21875 574.46875 26.40625 540.015625 C 176.953125 513.960938 563.632813 497.789063 1058.867188 487.984375 Z M 1055.3125 614.820313 " transform="matrix(0.1,0,0,-0.1,0,137.9)"/>
<path style=" stroke:none;fill-rule:evenodd;fill:rgb(13.719177%,12.156677%,12.547302%);fill-opacity:1;" d="M 274.199219 49.859375 C 271.535156 51.363281 269.054688 53.488281 266.738281 56.242188 C 261.652344 62.304688 258.148438 70.929688 256.238281 82.117188 C 254.339844 93.308594 254.894531 101.929688 257.921875 107.996094 C 260.949219 114.058594 265.867188 117.089844 272.6875 117.089844 C 279.5 117.089844 285.429688 114.058594 290.46875 107.996094 C 295.507813 101.929688 298.976563 93.308594 300.886719 82.117188 C 302.785156 70.976563 303.140625 61.460938 300.179688 55.367188 C 297.835938 50.570313 293.746094 48.222656 288.777344 47.445313 L 292.046875 29.515625 C 304.035156 30.027344 312.636719 33.878906 317.839844 41.078125 C 325.550781 50.210938 327.632813 63.890625 324.078125 82.117188 C 320.597656 99.980469 313.179688 113.660156 301.828125 123.15625 C 293.214844 130.898438 282.175781 134.765625 268.726563 134.765625 C 255.269531 134.765625 245.75 130.898438 240.144531 123.15625 C 232.457031 113.660156 230.367188 99.980469 233.851563 82.117188 C 237.402344 63.890625 244.835938 50.210938 256.152344 41.078125 C 256.152344 41.078125 255.3125 48.054688 255.269531 48.609375 C 255.210938 49.371094 255.8125 50.558594 256.792969 50.558594 C 257.769531 50.558594 266.46875 50.558594 267.167969 50.558594 C 268.046875 50.558594 268.871094 49.773438 269.105469 48.898438 C 269.304688 48.144531 271.566406 34.105469 271.800781 33.09375 C 272.039063 32.074219 273.203125 30.355469 273.910156 30.117188 C 274.617188 29.882813 276.648438 29.882813 277.039063 30.191406 C 277.433594 30.511719 278.050781 31.136719 277.902344 31.992188 C 277.742188 32.855469 275.335938 47.636719 275.160156 48.335938 C 274.929688 49.269531 274.199219 49.859375 274.199219 49.859375 Z M 274.199219 49.859375 "/>
<path style=" stroke:none;fill-rule:evenodd;fill:rgb(13.719177%,12.156677%,12.547302%);fill-opacity:1;" d="M 622.3125 37.390625 C 623.945313 38.609375 625.765625 40.40625 627.242188 42.390625 C 630.835938 47.238281 630.835938 55.367188 630.136719 62.355469 L 606.835938 62.355469 C 607.070313 60.433594 607.480469 59.089844 607.074219 56.777344 C 606.601563 54.117188 605.902344 52.558594 602.148438 50.835938 C 602.148438 50.839844 604.351563 39.667969 604.488281 39.1875 C 604.632813 38.703125 605.351563 38.328125 605.972656 38.402344 C 606.601563 38.484375 607.230469 39.109375 607.304688 39.730469 C 607.390625 40.359375 607.304688 42.308594 607.234375 42.863281 L 619.96875 42.863281 C 619.96875 42.863281 620.878906 38.394531 621.0625 37.703125 C 621.300781 36.839844 621.683594 36.921875 622.3125 37.390625 Z M 576.429688 37.390625 C 581.234375 35.640625 585.675781 34.6875 591.4375 34.058594 L 588.058594 50.566406 C 587.550781 50.652344 587.15625 50.746094 586.910156 50.835938 C 582.585938 52.269531 579.242188 55.054688 578.308594 57.636719 C 577.066406 61.027344 577.542969 64.644531 580.183594 66.308594 C 581.855469 67.429688 585.101563 68.8125 591.363281 70.296875 L 606.210938 74.050781 C 613.308594 75.746094 617.941406 78.472656 620.75 81.320313 C 625.113281 85.753906 626.382813 89.292969 624.503906 98.4375 C 622.660156 107.425781 617.300781 113.097656 608.089844 118.777344 C 598.882813 124.460938 585.394531 127.296875 572.449219 127.296875 C 559.21875 127.296875 550.960938 124.503906 545.46875 118.902344 C 539.980469 113.304688 539.144531 105.941406 541.585938 95.808594 L 565.117188 95.808594 C 564.152344 100.128906 564.230469 103.347656 565.328125 105.488281 C 567.34375 109.378906 569.261719 111.3125 577.671875 111.3125 C 582.695313 111.3125 587 110.878906 590.503906 109.78125 C 594.488281 108.523438 598.003906 104.539063 598.707031 101.488281 C 599.460938 98.253906 598.421875 94.253906 595.890625 92.8125 C 592.609375 90.933594 589.53125 90.804688 583.695313 89.527344 L 571.742188 86.714844 C 562.125 83.429688 559.074219 81.320313 555.671875 77.765625 C 550.949219 72.839844 549.460938 65.609375 552.914063 57.414063 C 553.34375 56.398438 553.847656 55.398438 554.421875 54.425781 C 554.421875 54.425781 562.125 54.355469 565.097656 53.414063 C 569.152344 52.132813 570.773438 50.617188 572.441406 48.253906 C 574.316406 45.59375 574.957031 44.035156 575.496094 41.839844 C 576.074219 39.417969 576.429688 37.390625 576.429688 37.390625 Z M 576.429688 37.390625 "/>
<path style=" stroke:none;fill-rule:evenodd;fill:rgb(13.719177%,12.156677%,12.547302%);fill-opacity:1;" d="M 409.925781 80.382813 C 421.652344 74.050781 423.917969 68.648438 426.578125 64.433594 C 429.390625 59.980469 430.617188 50.59375 429.972656 47.421875 C 429.617188 45.695313 429.113281 44.050781 428.457031 42.484375 L 428.335938 42.550781 C 427.960938 43.097656 427.570313 43.617188 427.160156 44.097656 C 424.175781 47.664063 419.617188 48.425781 413.453125 48.605469 C 407.855469 48.761719 402.535156 47.503906 400.035156 44.40625 C 397.550781 41.304688 397.78125 37.683594 398.132813 32.996094 C 398.230469 31.679688 398.394531 30.300781 398.644531 28.921875 L 383.308594 28.90625 C 382.371094 33.597656 379.574219 40.292969 377.121094 43.222656 C 373.589844 47.4375 368.210938 48.339844 360.929688 48.542969 L 354.929688 48.464844 L 338.738281 131.875 L 360.523438 131.875 L 368.84375 90.527344 C 368.84375 90.527344 386.480469 90.527344 389.054688 90.527344 C 391.636719 90.527344 394.449219 93.753906 394.21875 96.558594 C 393.980469 99.378906 393.042969 115.328125 392.804688 117.902344 C 392.574219 120.480469 392.804688 127.753906 393.273438 131.503906 L 416.023438 131.503906 C 415.554688 127.753906 415.324219 120.480469 415.554688 117.902344 C 415.792969 115.328125 416.726563 94.457031 416.964844 91.636719 C 417.195313 88.832031 412.507813 80.382813 409.925781 80.382813 Z M 409.925781 80.382813 "/>
<path style="fill-rule:evenodd;fill:rgb(92.96875%,10.984802%,14.109802%);fill-opacity:1;stroke-width:9.356;stroke-linecap:butt;stroke-linejoin:miter;stroke:rgb(80.076599%,80.076599%,80.076599%);stroke-opacity:1;stroke-miterlimit:4;" d="M 3472.34375 653.335938 L 3436.640625 475.835938 L 3260.234375 475.796875 C 3267.851563 502.320313 3274.453125 529.15625 3280.039063 557.828125 C 3286.5625 591.1875 3291.132813 621.539063 3293.867188 651.773438 Z M 3472.34375 653.335938 " transform="matrix(0.1,0,0,-0.1,0,137.9)"/>
<path style=" stroke:none;fill-rule:evenodd;fill:rgb(13.719177%,12.156677%,12.547302%);fill-opacity:1;" d="M 367.894531 29.882813 C 367.546875 31.242188 367.042969 32.648438 366.230469 33.617188 C 365.148438 34.902344 363.496094 35.1875 361.261719 35.246094 L 357.527344 35.128906 L 358.738281 28.90625 L 367.945313 28.90625 Z M 367.894531 29.882813 "/>
<path style=" stroke:none;fill-rule:evenodd;fill:rgb(13.719177%,12.156677%,12.547302%);fill-opacity:1;" d="M 521.6875 51.027344 C 522.234375 50.480469 521.261719 49.78125 520.710938 50.171875 C 518.03125 51.535156 514.644531 51.980469 510.546875 51.90625 C 509.304688 51.878906 506.820313 51.761719 504.515625 51.539063 L 501.734375 63.601563 L 487.953125 63.410156 L 489.050781 57.480469 L 476.84375 69.128906 L 484.65625 28.789063 L 480.589844 28.789063 L 480.417969 31.316406 C 480.066406 36.054688 477.667969 41.804688 474.644531 45.40625 C 471.628906 49.007813 467.027344 49.773438 460.808594 49.953125 C 459.398438 49.992188 458.003906 49.941406 456.671875 49.796875 L 456.449219 49.753906 L 441.195313 131.667969 L 463.707031 131.667969 L 472.769531 86.007813 L 474.964844 86.007813 L 496.855469 129.789063 L 524.988281 129.789063 L 496.539063 76.003906 Z M 521.6875 51.027344 "/>
<path style="fill-rule:evenodd;fill:rgb(92.96875%,10.984802%,14.109802%);fill-opacity:1;stroke-width:9.356;stroke-linecap:butt;stroke-linejoin:miter;stroke:rgb(80.076599%,80.076599%,80.076599%);stroke-opacity:1;stroke-miterlimit:4;" d="M 4495.039063 659.46875 L 4461.992188 484.46875 L 4205.78125 481.851563 C 4195.234375 517.828125 4159.6875 575.171875 4138.359375 575.171875 C 4192.8125 604.546875 4226.835938 631.890625 4250.3125 657.046875 Z M 4495.039063 659.46875 " transform="matrix(0.1,0,0,-0.1,0,137.9)"/>
<path style="fill-rule:evenodd;fill:rgb(92.96875%,10.984802%,14.109802%);fill-opacity:1;stroke-width:9.356;stroke-linecap:butt;stroke-linejoin:miter;stroke:rgb(80.076599%,80.076599%,80.076599%);stroke-opacity:1;stroke-miterlimit:4;" d="M 5637.695313 502.789063 C 5453.554688 498.804688 5258.125 495.367188 5070 492.398438 L 5067.96875 495.953125 L 5002.929688 618.960938 L 5045.3125 661.070313 L 5047.5 661.929688 C 5192.695313 662.398438 5346.757813 662.554688 5493.046875 662.398438 L 5494.84375 661.34375 C 5501.5625 627.28125 5517.734375 597.164063 5541.484375 572.359375 C 5567.539063 545.171875 5591.679688 525.835938 5640.507813 504.195313 Z M 5637.695313 502.789063 " transform="matrix(0.1,0,0,-0.1,0,137.9)"/>
<path style=" stroke:none;fill-rule:evenodd;fill:rgb(13.719177%,12.156677%,12.547302%);fill-opacity:1;" d="M 526.652344 43.738281 C 526.109375 44.679688 527.152344 45.421875 527.910156 44.84375 L 543.132813 29.726563 L 530.175781 29.726563 C 530.089844 30.949219 529.949219 32.234375 529.851563 33.558594 C 529.605469 36.820313 528.386719 40.566406 526.652344 43.738281 Z M 526.652344 43.738281 "/>
<path style="fill-rule:evenodd;fill:rgb(92.96875%,10.984802%,14.109802%);fill-opacity:1;stroke-width:9.356;stroke-linecap:butt;stroke-linejoin:miter;stroke:rgb(80.076599%,80.076599%,80.076599%);stroke-opacity:1;stroke-miterlimit:4;" d="M 1538.4375 480.210938 L 1608.75 630.289063 L 1608.75 480.210938 Z M 1538.4375 480.210938 " transform="matrix(0.1,0,0,-0.1,0,137.9)"/>
<path style="fill-rule:evenodd;fill:rgb(92.96875%,10.984802%,14.109802%);fill-opacity:1;stroke-width:9.356;stroke-linecap:butt;stroke-linejoin:miter;stroke:rgb(80.076599%,80.076599%,80.076599%);stroke-opacity:1;stroke-miterlimit:4;" d="M 1301.5625 623.296875 L 1301.5625 484.9375 L 1378.945313 624.390625 Z M 1301.5625 623.296875 " transform="matrix(0.1,0,0,-0.1,0,137.9)"/>
<path style="fill-rule:evenodd;fill:rgb(92.96875%,10.984802%,14.109802%);fill-opacity:1;stroke-width:9.356;stroke-linecap:butt;stroke-linejoin:miter;stroke:rgb(80.076599%,80.076599%,80.076599%);stroke-opacity:1;stroke-miterlimit:4;" d="M 2957.734375 474.742188 C 2965.390625 500.289063 2971.796875 527.984375 2976.914063 557.867188 C 2982.421875 590.445313 2986.445313 621.421875 2988.359375 650.171875 L 2615.507813 645.601563 C 2607.1875 618.726563 2600.351563 589.46875 2594.921875 557.867188 C 2589.882813 528.179688 2586.835938 500.601563 2585.820313 475.171875 Z M 2957.734375 474.742188 " transform="matrix(0.1,0,0,-0.1,0,137.9)"/>
<path style="fill-rule:evenodd;fill:rgb(92.96875%,10.984802%,14.109802%);fill-opacity:1;stroke-width:9.356;stroke-linecap:butt;stroke-linejoin:miter;stroke:rgb(80.076599%,80.076599%,80.076599%);stroke-opacity:1;stroke-miterlimit:4;" d="M 2330.546875 642.515625 C 2322.851563 615.484375 2316.09375 587.28125 2310.3125 557.828125 C 2304.648438 528.765625 2300.46875 503.609375 2297.734375 476.65625 L 2099.6875 477.476563 L 2181.445313 640.5625 Z M 2330.546875 642.515625 " transform="matrix(0.1,0,0,-0.1,0,137.9)"/>
<path style="fill-rule:evenodd;fill:rgb(92.96875%,10.984802%,14.109802%);fill-opacity:1;stroke-width:9.356;stroke-linecap:butt;stroke-linejoin:miter;stroke:rgb(80.076599%,80.076599%,80.076599%);stroke-opacity:1;stroke-miterlimit:4;" d="M 4249.414063 961.929688 C 4225.234375 933.101563 4188.398438 926.929688 4138.554688 925.5625 C 4093.28125 924.273438 4050.273438 934.390625 4030.117188 959.46875 C 4009.960938 984.429688 4011.835938 1013.84375 4014.726563 1051.734375 C 4017.460938 1088.960938 4026.640625 1132.203125 4050.78125 1161.460938 C 4075 1190.71875 4125.429688 1200.71875 4170.78125 1201.226563 C 4221.523438 1201.8125 4264.921875 1196.03125 4285.078125 1170.5625 C 4305.273438 1145.09375 4298.4375 1112.085938 4295.664063 1074.859375 C 4292.8125 1036.851563 4273.554688 990.71875 4249.414063 961.929688 Z M 4249.414063 961.929688 " transform="matrix(0.1,0,0,-0.1,0,137.9)"/>
<path style="fill-rule:evenodd;fill:rgb(92.96875%,10.984802%,14.109802%);fill-opacity:1;stroke-width:9.356;stroke-linecap:butt;stroke-linejoin:miter;stroke:rgb(80.076599%,80.076599%,80.076599%);stroke-opacity:1;stroke-miterlimit:4;" d="M 3789.726563 1065.953125 C 3779.101563 1029.390625 3762.929688 992.59375 3741.210938 966.578125 C 3709.84375 929.195313 3662.148438 921.148438 3597.617188 919.351563 C 3538.984375 917.710938 3483.125 930.875 3457.070313 963.335938 C 3430.9375 995.71875 3433.4375 1033.6875 3437.03125 1082.867188 C 3437.65625 1090.835938 3444.960938 1132.90625 3449.6875 1148.101563 C 3454.140625 1162.671875 3464.648438 1198.296875 3471.25 1213.648438 C 3478.28125 1230.171875 3486.601563 1245.953125 3497.578125 1259.273438 C 3528.945313 1297.164063 3594.335938 1310.09375 3652.96875 1310.835938 C 3718.789063 1311.578125 3775.117188 1303.960938 3801.210938 1271.03125 C 3821.796875 1244.9375 3820.664063 1212.671875 3817.421875 1176.304688 L 3728.945313 1176.34375 C 3730.78125 1195.835938 3732.109375 1213.140625 3721.171875 1226.96875 C 3708.28125 1243.335938 3680.234375 1247.164063 3647.460938 1246.8125 C 3618.28125 1246.421875 3585.195313 1240.40625 3570.117188 1221.148438 C 3555.195313 1202.125 3543.476563 1164.585938 3538.789063 1145.835938 C 3534.101563 1127.046875 3528.242188 1087.203125 3526.5625 1070.054688 C 3524.101563 1045.601563 3523.515625 1026.734375 3536.484375 1010.601563 C 3549.492188 994.390625 3577.226563 987.867188 3606.40625 988.6875 C 3638.554688 989.625 3662.304688 993.570313 3677.929688 1012.203125 C 3689.570313 1026.148438 3696.875 1046.34375 3701.875 1065.875 Z M 3789.726563 1065.953125 " transform="matrix(0.1,0,0,-0.1,0,137.9)"/>
<path style="fill-rule:evenodd;fill:rgb(80.076599%,80.076599%,80.076599%);fill-opacity:1;stroke-width:18.766;stroke-linecap:butt;stroke-linejoin:miter;stroke:rgb(80.076599%,80.076599%,80.076599%);stroke-opacity:1;stroke-miterlimit:4;" d="M 4195.46875 1004.3125 C 4207.265625 1019.351563 4215.664063 1042.28125 4217.617188 1068.296875 C 4219.492188 1094.273438 4219.257813 1113.84375 4209.492188 1126.890625 C 4199.726563 1140.015625 4181.09375 1145.71875 4160.9375 1143.960938 C 4140.78125 1142.242188 4125.273438 1133.882813 4113.320313 1118.921875 C 4101.40625 1103.960938 4093.945313 1083.492188 4092.070313 1057.476563 C 4090.078125 1031.460938 4089.453125 1011.890625 4099.257813 998.765625 C 4109.140625 985.601563 4128.632813 979.898438 4148.90625 981.578125 C 4169.023438 983.335938 4183.554688 989.3125 4195.46875 1004.3125 Z M 4195.46875 1004.3125 " transform="matrix(0.1,0,0,-0.1,0,137.9)"/>
<path style=" stroke:none;fill-rule:evenodd;fill:rgb(13.719177%,12.156677%,12.547302%);fill-opacity:1;" d="M 418.058594 35.285156 C 418.800781 34.34375 419.328125 32.902344 419.449219 31.269531 C 419.570313 29.640625 419.554688 28.40625 418.941406 27.589844 C 418.328125 26.765625 417.160156 26.410156 415.894531 26.515625 C 414.625 26.628906 413.65625 27.148438 412.90625 28.089844 C 412.152344 29.03125 411.6875 30.316406 411.570313 31.945313 C 411.445313 33.578125 411.40625 34.808594 412.023438 35.636719 C 412.636719 36.464844 413.871094 36.820313 415.136719 36.714844 C 416.402344 36.601563 417.316406 36.230469 418.058594 35.285156 Z M 418.058594 35.285156 "/>
<path style="fill-rule:evenodd;fill:rgb(92.96875%,10.984802%,14.109802%);fill-opacity:1;stroke-width:9.356;stroke-linecap:butt;stroke-linejoin:miter;stroke:rgb(80.076599%,80.076599%,80.076599%);stroke-opacity:1;stroke-miterlimit:4;" d="M 4723.085938 950.210938 C 4698.984375 921.421875 4662.070313 915.210938 4612.265625 913.804688 C 4566.992188 912.554688 4523.984375 922.671875 4503.828125 947.710938 C 4483.671875 972.789063 4485.546875 1002.085938 4488.4375 1040.015625 C 4491.171875 1077.28125 4500.351563 1120.445313 4524.53125 1149.742188 C 4548.671875 1178.960938 4599.140625 1188.960938 4644.492188 1189.507813 C 4695.234375 1190.054688 4738.632813 1184.273438 4758.828125 1158.84375 C 4778.90625 1133.375 4772.148438 1100.367188 4769.375 1063.101563 C 4766.523438 1025.171875 4747.304688 979.078125 4723.085938 950.210938 Z M 4723.085938 950.210938 " transform="matrix(0.1,0,0,-0.1,0,137.9)"/>
<path style="fill-rule:evenodd;fill:rgb(80.076599%,80.076599%,80.076599%);fill-opacity:1;stroke-width:18.766;stroke-linecap:butt;stroke-linejoin:miter;stroke:rgb(80.076599%,80.076599%,80.076599%);stroke-opacity:1;stroke-miterlimit:4;" d="M 4669.101563 992.632813 C 4680.976563 1007.632813 4689.375 1030.5625 4691.328125 1056.578125 C 4693.242188 1082.554688 4692.96875 1102.085938 4683.203125 1115.210938 C 4673.4375 1128.296875 4654.765625 1133.960938 4634.648438 1132.242188 C 4614.492188 1130.484375 4598.984375 1122.125 4587.109375 1107.203125 C 4575.117188 1092.203125 4567.65625 1071.773438 4565.703125 1045.757813 C 4563.828125 1019.78125 4563.164063 1000.210938 4573.007813 986.96875 C 4582.851563 973.882813 4602.421875 968.101563 4622.578125 969.898438 C 4642.734375 971.65625 4657.226563 977.554688 4669.101563 992.632813 Z M 4669.101563 992.632813 " transform="matrix(0.1,0,0,-0.1,0,137.9)"/>
<path style=" stroke:none;fill-rule:evenodd;fill:rgb(13.719177%,12.156677%,12.547302%);fill-opacity:1;" d="M 465.429688 36.460938 C 466.171875 35.511719 466.699219 34.074219 466.820313 32.441406 C 466.941406 30.808594 466.925781 29.585938 466.3125 28.765625 C 465.699219 27.9375 464.53125 27.578125 463.261719 27.691406 C 461.996094 27.800781 461.027344 28.324219 460.277344 29.265625 C 459.523438 30.203125 459.058594 31.488281 458.941406 33.117188 C 458.816406 34.753906 458.777344 35.976563 459.394531 36.808594 C 460.007813 37.636719 461.238281 37.992188 462.507813 37.886719 C 463.773438 37.773438 464.6875 37.398438 465.429688 36.460938 Z M 465.429688 36.460938 "/>
<path style="fill-rule:evenodd;fill:rgb(92.96875%,10.984802%,14.109802%);fill-opacity:1;stroke-width:9.356;stroke-linecap:butt;stroke-linejoin:miter;stroke:rgb(80.076599%,80.076599%,80.076599%);stroke-opacity:1;stroke-miterlimit:4;" d="M 5086.09375 1158.882813 C 5105.820313 1163.882813 5127.382813 1166.03125 5147.890625 1166.304688 C 5198.710938 1166.890625 5242.148438 1161.03125 5262.226563 1135.601563 C 5282.382813 1110.210938 5275.625 1077.203125 5272.8125 1039.898438 C 5270.039063 1001.96875 5250.742188 955.914063 5226.5625 927.046875 C 5202.382813 898.179688 5165.546875 889.742188 5115.742188 890.601563 C 5096.71875 890.953125 5041.992188 894.078125 5027.96875 900.367188 L 4998.242188 767.476563 L 4915.390625 769.078125 L 4999.765625 1173.960938 L 5088.867188 1173.960938 Z M 5086.09375 1158.882813 " transform="matrix(0.1,0,0,-0.1,0,137.9)"/>
<path style=" stroke:none;fill-rule:evenodd;fill:rgb(80.076599%,80.076599%,80.076599%);fill-opacity:1;" d="M 515.816406 40.960938 C 517.003906 39.460938 517.839844 37.164063 518.035156 34.558594 C 518.226563 31.960938 518.199219 30.011719 517.226563 28.699219 C 516.25 27.386719 514.378906 26.820313 512.367188 26.992188 C 510.355469 27.164063 508.804688 28.003906 507.613281 29.496094 C 506.414063 30.992188 505.671875 33.046875 505.476563 35.640625 C 505.285156 38.242188 505.222656 40.195313 506.203125 41.511719 C 507.191406 42.835938 509.144531 43.402344 511.160156 43.230469 C 513.179688 43.054688 514.628906 42.464844 515.816406 40.960938 Z M 515.816406 40.960938 "/>
<path style=" stroke:none;fill-rule:evenodd;fill:rgb(13.719177%,12.156677%,12.547302%);fill-opacity:1;" d="M 514.289063 38.757813 C 515.03125 37.8125 515.558594 36.378906 515.675781 34.742188 C 515.800781 33.109375 515.785156 31.882813 515.171875 31.0625 C 514.554688 30.238281 513.390625 29.878906 512.121094 29.988281 C 510.855469 30.09375 509.886719 30.621094 509.132813 31.558594 C 508.382813 32.503906 507.917969 33.785156 507.792969 35.421875 C 507.675781 37.050781 507.632813 38.285156 508.246094 39.109375 C 508.867188 39.933594 510.097656 40.292969 511.367188 40.179688 C 512.625 40.078125 513.539063 39.703125 514.289063 38.757813 Z M 514.289063 38.757813 "/>
<path style="fill-rule:evenodd;fill:rgb(80.076599%,80.076599%,80.076599%);fill-opacity:1;stroke-width:9.356;stroke-linecap:butt;stroke-linejoin:miter;stroke:rgb(80.076599%,80.076599%,80.076599%);stroke-opacity:1;stroke-miterlimit:4;" d="M 5638.164063 1037.476563 L 5544.257813 1037.476563 C 5545.820313 1052.515625 5550.039063 1064.15625 5558.046875 1073.804688 C 5566.09375 1083.53125 5582.851563 1086.851563 5597.851563 1087.007813 C 5614.6875 1087.242188 5629.921875 1085.835938 5635.78125 1076.8125 C 5640.78125 1069.234375 5643.125 1050.445313 5638.164063 1037.476563 Z M 5638.164063 1037.476563 " transform="matrix(0.1,0,0,-0.1,0,137.9)"/>
<g clip-path="url(#clip2)" clip-rule="nonzero">
<path style=" stroke:none;fill-rule:evenodd;fill:rgb(92.96875%,10.984802%,14.109802%);fill-opacity:1;" d="M 608.476563 72.214844 C 615.570313 74.0625 620.261719 76.867188 623.15625 79.808594 C 625.183594 81.863281 626.613281 83.746094 627.394531 86.007813 L 627.671875 85.976563 C 688.113281 84.140625 736.683594 81.671875 753.886719 78.507813 L 753.882813 78.507813 C 732.316406 74.320313 674.640625 72.558594 607.699219 71.941406 Z M 608.476563 72.214844 "/>
</g>
<g clip-path="url(#clip3)" clip-rule="nonzero">
<path style="fill:none;stroke-width:9.356;stroke-linecap:butt;stroke-linejoin:miter;stroke:rgb(80.076599%,80.076599%,80.076599%);stroke-opacity:1;stroke-miterlimit:4;" d="M 6084.765625 656.851563 C 6155.703125 638.375 6202.617188 610.328125 6231.5625 580.914063 C 6251.835938 560.367188 6266.132813 541.539063 6273.945313 518.921875 L 6276.71875 519.234375 C 6881.132813 537.59375 7366.835938 562.28125 7538.867188 593.921875 L 7538.828125 593.921875 C 7323.164063 635.796875 6746.40625 653.414063 6076.992188 659.585938 Z M 6084.765625 656.851563 " transform="matrix(0.1,0,0,-0.1,0,137.9)"/>
</g>
<path style=" stroke:none;fill-rule:evenodd;fill:rgb(80.076599%,80.076599%,80.076599%);fill-opacity:1;" d="M 377.085938 46.628906 L 372.601563 72.335938 L 384.945313 72.335938 C 389.546875 72.335938 393.109375 71.773438 395.621094 70.648438 C 400.070313 68.675781 402.683594 65.617188 404.300781 60.679688 C 406.289063 54.597656 404.578125 50.621094 401.0625 48.464844 C 399.085938 47.242188 395.886719 46.628906 391.46875 46.628906 Z M 377.085938 46.628906 "/>
<path style="fill-rule:evenodd;fill:rgb(92.96875%,10.984802%,14.109802%);fill-opacity:1;stroke-width:9.356;stroke-linecap:butt;stroke-linejoin:miter;stroke:rgb(80.076599%,80.076599%,80.076599%);stroke-opacity:1;stroke-miterlimit:4;" d="M 1886.640625 853.726563 C 1862.460938 824.820313 1825.625 818.648438 1775.742188 817.28125 C 1730.507813 815.992188 1687.460938 826.148438 1667.265625 851.1875 C 1647.148438 876.226563 1649.0625 905.5625 1651.875 943.453125 C 1654.609375 980.679688 1663.828125 1023.921875 1687.96875 1053.21875 C 1712.1875 1082.4375 1762.617188 1092.4375 1807.96875 1092.984375 C 1858.75 1093.53125 1902.226563 1087.710938 1922.304688 1062.28125 C 1942.460938 1036.8125 1935.625 1003.84375 1932.890625 966.578125 C 1930 928.609375 1910.78125 882.515625 1886.640625 853.726563 Z M 1886.640625 853.726563 " transform="matrix(0.1,0,0,-0.1,0,137.9)"/>
<path style="fill-rule:evenodd;fill:rgb(80.076599%,80.076599%,80.076599%);fill-opacity:1;stroke-width:18.766;stroke-linecap:butt;stroke-linejoin:miter;stroke:rgb(80.076599%,80.076599%,80.076599%);stroke-opacity:1;stroke-miterlimit:4;" d="M 1832.617188 896.03125 C 1844.453125 911.109375 1852.8125 934.078125 1854.765625 960.015625 C 1856.679688 986.03125 1856.445313 1005.601563 1846.679688 1018.648438 C 1836.914063 1031.734375 1818.320313 1037.476563 1798.085938 1035.71875 C 1777.96875 1033.960938 1762.460938 1025.601563 1750.546875 1010.601563 C 1738.554688 995.679688 1731.132813 975.210938 1729.21875 949.234375 C 1727.265625 923.179688 1726.640625 903.648438 1736.445313 890.484375 C 1746.328125 877.320313 1765.859375 871.617188 1786.054688 873.296875 C 1806.210938 875.054688 1820.78125 881.03125 1832.617188 896.03125 Z M 1832.617188 896.03125 " transform="matrix(0.1,0,0,-0.1,0,137.9)"/>
<path style="fill-rule:evenodd;fill:rgb(13.719177%,12.156677%,12.547302%);fill-opacity:1;stroke-width:18.766;stroke-linecap:butt;stroke-linejoin:miter;stroke:rgb(80.076599%,80.076599%,80.076599%);stroke-opacity:1;stroke-miterlimit:4;" d="M 1817.773438 917.867188 C 1825.234375 927.28125 1830.46875 941.734375 1831.71875 958.023438 C 1832.890625 974.3125 1832.734375 986.65625 1826.5625 994.859375 C 1820.507813 1003.101563 1808.789063 1006.65625 1796.132813 1005.601563 C 1783.476563 1004.46875 1773.710938 999.234375 1766.210938 989.820313 C 1758.710938 980.40625 1754.0625 967.554688 1752.851563 951.265625 C 1751.640625 934.9375 1751.210938 922.632813 1757.421875 914.351563 C 1763.59375 906.070313 1775.898438 902.476563 1788.515625 903.609375 C 1801.25 904.703125 1810.351563 908.414063 1817.773438 917.867188 Z M 1817.773438 917.867188 " transform="matrix(0.1,0,0,-0.1,0,137.9)"/>
</g>
</svg>
